<svg width="24" height="24" viewBox="0 0 24 24" fill="none" xmlns="http://www.w3.org/2000/svg">
<path d="M0.75 3.75V12.75H23.25V3.75H0.75ZM2.25 5.25H21.75V11.25H2.25V5.25ZM5.25 6.75C4.4209 6.75 3.75 7.4209 3.75 8.25C3.75 9.0791 4.4209 9.75 5.25 9.75C6.0791 9.75 6.75 9.0791 6.75 8.25C6.75 7.4209 6.0791 6.75 5.25 6.75ZM9.75 6.75C8.9209 6.75 8.25 7.4209 8.25 8.25C8.25 9.0791 8.9209 9.75 9.75 9.75C10.5791 9.75 11.25 9.0791 11.25 8.25C11.25 7.4209 10.5791 6.75 9.75 6.75ZM14.25 6.75C13.4209 6.75 12.75 7.4209 12.75 8.25C12.75 9.0791 13.4209 9.75 14.25 9.75C15.0791 9.75 15.75 9.0791 15.75 8.25C15.75 7.4209 15.0791 6.75 14.25 6.75ZM18.75 6.75C17.9209 6.75 17.25 7.4209 17.25 8.25C17.25 9.0791 17.9209 9.75 18.75 9.75C19.5791 9.75 20.25 9.0791 20.25 8.25C20.25 7.4209 19.5791 6.75 18.75 6.75ZM15.9609 14.4609L11.25 19.1719L8.78906 16.7109L7.71094 17.7891L10.7109 20.7891L11.25 21.3047L11.7891 20.7891L17.0391 15.5391L15.9609 14.4609Z" fill="black"/>
</svg>
