<svg width="24" height="24" viewBox="0 0 24 24" fill="none" xmlns="http://www.w3.org/2000/svg">
<path d="M3.74222 2.00001L2.00198 2.01368C1.86961 2.01294 1.7384 2.0385 1.61598 2.08886C1.49356 2.13921 1.38235 2.21338 1.2888 2.30704C1.19526 2.40071 1.12124 2.51201 1.07104 2.6345C1.02084 2.75699 0.995456 2.88823 0.996361 3.0206C0.997266 3.15297 1.02444 3.28385 1.07631 3.40564C1.12818 3.52743 1.20372 3.63771 1.29853 3.73009C1.39335 3.82247 1.50556 3.8951 1.62866 3.94378C1.75176 3.99246 1.8833 4.01622 2.01565 4.01368L3.08597 4.00587L6.37894 11.9082L5.18167 13.8223C4.34332 15.161 5.36271 17 6.94144 17H18C18.1325 17.0019 18.2641 16.9774 18.3871 16.928C18.51 16.8786 18.622 16.8052 18.7163 16.7122C18.8107 16.6191 18.8856 16.5082 18.9368 16.386C18.9879 16.2637 19.0143 16.1325 19.0143 16C19.0143 15.8675 18.9879 15.7363 18.9368 15.614C18.8856 15.4918 18.8107 15.3809 18.7163 15.2878C18.622 15.1948 18.51 15.1214 18.3871 15.072C18.2641 15.0226 18.1325 14.9981 18 15H6.94144C6.83016 15 6.81733 14.9781 6.87698 14.8828C6.87763 14.8828 6.87828 14.8828 6.87894 14.8828L8.05472 13H15.5215C16.2475 13 16.9176 12.6057 17.2696 11.9707L20.8711 5.48438C21.2421 4.81838 20.7601 4.00001 19.9981 4.00001H5.25003L4.67386 2.61524C4.59733 2.43168 4.46783 2.27511 4.30188 2.16552C4.13593 2.05593 3.94108 1.99831 3.74222 2.00001ZM7.00003 18C6.4696 18 5.96089 18.2107 5.58582 18.5858C5.21074 18.9609 5.00003 19.4696 5.00003 20C5.00003 20.5304 5.21074 21.0391 5.58582 21.4142C5.96089 21.7893 6.4696 22 7.00003 22C7.53046 22 8.03917 21.7893 8.41424 21.4142C8.78932 21.0391 9.00003 20.5304 9.00003 20C9.00003 19.4696 8.78932 18.9609 8.41424 18.5858C8.03917 18.2107 7.53046 18 7.00003 18ZM17 18C16.4696 18 15.9609 18.2107 15.5858 18.5858C15.2107 18.9609 15 19.4696 15 20C15 20.5304 15.2107 21.0391 15.5858 21.4142C15.9609 21.7893 16.4696 22 17 22C17.5305 22 18.0392 21.7893 18.4142 21.4142C18.7893 21.0391 19 20.5304 19 20C19 19.4696 18.7893 18.9609 18.4142 18.5858C18.0392 18.2107 17.5305 18 17 18Z" fill="#CACACA"/>
</svg>
