<svg width="24" height="24" viewBox="0 0 24 24" fill="none" xmlns="http://www.w3.org/2000/svg">
<path d="M12 2.25C9.1084 2.25 6.75 4.6084 6.75 7.5V9.75H4.5V21.75H19.5V9.75H17.25V7.5C17.25 4.6084 14.8916 2.25 12 2.25ZM12 3.75C14.0801 3.75 15.75 5.41992 15.75 7.5V9.75H8.25V7.5C8.25 5.41992 9.91992 3.75 12 3.75ZM6 11.25H18V20.25H6V11.25ZM9 15C8.58691 15 8.25 15.3369 8.25 15.75C8.25 16.1631 8.58691 16.5 9 16.5C9.41309 16.5 9.75 16.1631 9.75 15.75C9.75 15.3369 9.41309 15 9 15ZM12 15C11.5869 15 11.25 15.3369 11.25 15.75C11.25 16.1631 11.5869 16.5 12 16.5C12.4131 16.5 12.75 16.1631 12.75 15.75C12.75 15.3369 12.4131 15 12 15ZM15 15C14.5869 15 14.25 15.3369 14.25 15.75C14.25 16.1631 14.5869 16.5 15 16.5C15.4131 16.5 15.75 16.1631 15.75 15.75C15.75 15.3369 15.4131 15 15 15Z" fill="black"/>
</svg>
