<svg width="24" height="24" viewBox="0 0 24 24" fill="none" xmlns="http://www.w3.org/2000/svg">
<path d="M12.043 2C11.8798 1.99348 11.7175 2.02701 11.5703 2.09766L7.57031 3.9961C7.39943 4.07743 7.25513 4.20557 7.15418 4.36564C7.05323 4.52572 6.99976 4.71115 7 4.9004V8.9004C7.00013 9.08263 7.05004 9.26137 7.14436 9.41731C7.23868 9.57324 7.37381 9.70044 7.53516 9.78516L11.5352 11.8848C11.6785 11.96 11.8381 11.9994 12 11.9994C12.1619 11.9994 12.3215 11.96 12.4648 11.8848L16.4648 9.78516C16.6262 9.70044 16.7613 9.57324 16.8556 9.41731C16.95 9.26137 16.9999 9.08263 17 8.9004V4.9004C17.0002 4.71115 16.9468 4.52572 16.8458 4.36564C16.7449 4.20557 16.6006 4.07743 16.4297 3.9961L12.4297 2.09766C12.3086 2.03947 12.1771 2.00626 12.043 2ZM12 4.10743L14.9199 5.49415L12 7.09961L9.08008 5.49415L12 4.10743ZM3 6C2.448 6 2 6.448 2 7V13.4844C2 14.0154 2.21094 14.5244 2.58594 14.9004L6 18.3145V20C6 20.552 6.448 21 7 21H10C10.552 21 11 20.552 11 20L10.998 17.7949V17.5859C10.998 17.5149 10.9836 17.4556 10.9746 17.3906C10.8536 15.8186 10.0661 14.8873 9.70508 14.5273L6.70508 11.5273C6.31408 11.1363 5.68397 11.1363 5.29297 11.5273C4.90197 11.9183 4.90197 12.5504 5.29297 12.9414L7.37305 15.0234L7.36328 15.0215C7.55828 15.2165 7.55828 15.5335 7.36328 15.7285C7.16828 15.9235 6.85125 15.9235 6.65625 15.7285L3.99609 13.0156C3.99709 13.0096 4 13.006 4 13V7C4 6.448 3.552 6 3 6ZM21 6C20.448 6 20 6.448 20 7V13C20 13.006 20.0039 13.0096 20.0039 13.0156L17.3438 15.7285C17.1488 15.9235 16.8317 15.9235 16.6367 15.7285C16.4417 15.5335 16.4417 15.2165 16.6367 15.0215L16.627 15.0234L18.707 12.9414C19.098 12.5504 19.098 11.9183 18.707 11.5273C18.316 11.1363 17.684 11.1363 17.293 11.5273L14.293 14.5273C13.932 14.8873 13.1464 15.8186 13.0254 17.3906C13.0164 17.4556 13 17.5149 13 17.5859V17.7949V20C13 20.552 13.448 21 14 21H17C17.552 21 18 20.552 18 20V18.3145L21.4141 14.9004C21.7891 14.5244 22 14.0154 22 13.4844V7C22 6.448 21.552 6 21 6Z" fill="#CACACA"/>
</svg>
