<svg width="24" height="24" viewBox="0 0 24 24" fill="none" xmlns="http://www.w3.org/2000/svg">
<path d="M12 2C6.477 2 2 6.477 2 12C2 17.523 6.477 22 12 22C17.523 22 22 17.523 22 12C22 6.477 17.523 2 12 2ZM12 4C12.552 4 13 4.448 13 5V11C13 11.552 12.552 12 12 12C11.448 12 11 11.552 11 11V5C11 4.448 11.448 4 12 4ZM10.368 19.837C7.305 19.228 4.827 16.784 4.183 13.728C3.466 10.33 4.925 7.195 7.423 5.447C8.086 4.984 9 5.46 9 6.268C9 6.607 8.819 6.91 8.543 7.106C6.767 8.363 5.698 10.556 6.076 12.964C6.484 15.568 8.655 17.647 11.273 17.957C14.905 18.386 18 15.548 18 12C18 9.979 16.993 8.191 15.456 7.105C15.18 6.909 15 6.608 15 6.27C15 5.468 15.906 4.98 16.564 5.438C18.639 6.884 20 9.285 20 12C20 16.945 15.49 20.856 10.368 19.837Z" fill="black"/>
</svg>
