<svg width="18" height="20" viewBox="0 0 18 20" fill="none" xmlns="http://www.w3.org/2000/svg">
<path d="M9 0C6.80271 0 5 1.80271 5 4C5 4.73067 5.21364 5.40837 5.56055 6H3C2.448 6 2 5.551 2 5C2 4.616 2.21716 4.28223 2.53516 4.11523C2.83816 3.95523 3 3.61544 3 3.27344C3 2.52844 2.19983 2.01495 1.54883 2.37695C0.626828 2.88895 0 3.872 0 5V18C0 19.105 0.895 20 2 20H16C17.105 20 18 19.105 18 18V8C18 7.18248 17.509 6.48211 16.8066 6.17188C16.9219 5.79844 17 5.40893 17 5C17 2.80267 15.1973 1 13 1C12.5932 1 12.201 1.06745 11.8281 1.18164C11.1024 0.453401 10.1011 0 9 0ZM9 2C10.1164 2 11 2.88359 11 4C11 5.11641 10.1164 6 9 6C7.88359 6 7 5.11641 7 4C7 2.88359 7.88359 2 9 2ZM13 3C14.1167 3 15 3.88333 15 5C15 5.36783 14.8987 5.70636 14.7285 6H12.4395C12.7864 5.40837 13 4.73067 13 4C13 3.65948 12.9427 3.3339 12.8613 3.01758C12.9087 3.01431 12.9515 3 13 3ZM14 12C14.552 12 15 12.448 15 13C15 13.552 14.552 14 14 14C13.448 14 13 13.552 13 13C13 12.448 13.448 12 14 12Z" fill="black"/>
</svg>
