<svg width="16" height="16" viewBox="0 0 16 16" fill="none" xmlns="http://www.w3.org/2000/svg">
<path d="M7.99957 1.33337C7.44757 1.33337 6.99957 1.78137 6.99957 2.33337V2.79692C5.27502 3.24144 3.99957 4.80324 3.99957 6.66671V10H11.9996V6.66671C11.9996 4.80324 10.7241 3.24144 8.99957 2.79692V2.33337C8.99957 1.78137 8.55157 1.33337 7.99957 1.33337ZM3.3329 11.3334C3.24456 11.3321 3.15685 11.3484 3.07487 11.3814C2.99289 11.4143 2.91828 11.4632 2.85537 11.5253C2.79245 11.5873 2.74249 11.6612 2.7084 11.7427C2.6743 11.8242 2.65674 11.9117 2.65674 12C2.65674 12.0884 2.6743 12.1759 2.7084 12.2574C2.74249 12.3389 2.79245 12.4128 2.85537 12.4748C2.91828 12.5368 2.99289 12.5858 3.07487 12.6187C3.15685 12.6516 3.24456 12.668 3.3329 12.6667H6.84592C6.72853 12.8693 6.66655 13.0992 6.66623 13.3334C6.66623 13.687 6.80671 14.0261 7.05676 14.2762C7.30681 14.5262 7.64594 14.6667 7.99957 14.6667C8.35319 14.6667 8.69233 14.5262 8.94238 14.2762C9.19242 14.0261 9.3329 13.687 9.3329 13.3334C9.33218 13.0991 9.26976 12.8692 9.15191 12.6667H12.6662C12.7546 12.668 12.8423 12.6516 12.9243 12.6187C13.0062 12.5858 13.0809 12.5368 13.1438 12.4748C13.2067 12.4128 13.2566 12.3389 13.2907 12.2574C13.3248 12.1759 13.3424 12.0884 13.3424 12C13.3424 11.9117 13.3248 11.8242 13.2907 11.7427C13.2566 11.6612 13.2067 11.5873 13.1438 11.5253C13.0809 11.4632 13.0062 11.4143 12.9243 11.3814C12.8423 11.3484 12.7546 11.3321 12.6662 11.3334H3.3329Z" fill="black"/>
</svg>
