<svg width="16" height="16" viewBox="0 0 16 16" fill="none" xmlns="http://www.w3.org/2000/svg">
<path d="M9.33333 3.56128C9.16275 3.56128 8.99198 3.62756 8.86198 3.75789L8.80469 3.81519C8.54402 4.07585 8.54402 4.49789 8.80469 4.75789L11.3802 7.33341H2.66667C2.29867 7.33341 2 7.63208 2 8.00008C2 8.36808 2.29867 8.66675 2.66667 8.66675H11.3802L8.80469 11.2423C8.54402 11.5029 8.54402 11.925 8.80469 12.185L8.86198 12.2423C9.12264 12.5029 9.54469 12.5029 9.80469 12.2423L13.5755 8.47144C13.8362 8.21077 13.8362 7.78873 13.5755 7.52873L9.80469 3.75789C9.67435 3.62756 9.50392 3.56128 9.33333 3.56128Z" fill="black"/>
</svg>
