<svg width="24" height="24" viewBox="0 0 24 24" fill="none" xmlns="http://www.w3.org/2000/svg">
<path d="M7.5 3C7.10742 3 6.70605 3.1377 6.42188 3.42188C6.1377 3.70605 6 4.10742 6 4.5V19.5C6 19.8926 6.1377 20.2939 6.42188 20.5781C6.70605 20.8623 7.10742 21 7.5 21H16.5C16.8926 21 17.2939 20.8623 17.5781 20.5781C17.8623 20.2939 18 19.8926 18 19.5V4.5C18 4.10742 17.8623 3.70605 17.5781 3.42188C17.2939 3.1377 16.8926 3 16.5 3H7.5ZM7.5 4.5H16.5V19.5H7.5V4.5ZM10.5 17.25V18.75H13.5V17.25H10.5Z" fill="black"/>
</svg>
