<svg width="16" height="16" viewBox="0 0 16 16" fill="none" xmlns="http://www.w3.org/2000/svg">
<path d="M4.66732 1.33325C4.29932 1.33325 4.00065 1.63192 4.00065 1.99992V3.33325C4.00065 3.70125 4.29932 3.99992 4.66732 3.99992H11.334C11.702 3.99992 12.0007 3.70125 12.0007 3.33325V1.99992C12.0007 1.63192 11.702 1.33325 11.334 1.33325H4.66732ZM3.33398 5.33325C2.23398 5.33325 1.33398 6.23325 1.33398 7.33325V9.99992C1.33398 10.7366 1.93065 11.3333 2.66732 11.3333H4.00065V12.6666C4.00065 13.4033 4.59732 13.9999 5.33398 13.9999H10.6673C11.404 13.9999 12.0007 13.4033 12.0007 12.6666V11.3333H13.334C14.0707 11.3333 14.6673 10.7366 14.6673 9.99992V7.33325C14.6673 6.23325 13.7673 5.33325 12.6673 5.33325H3.33398ZM12.6673 6.66659C13.0673 6.66659 13.334 6.93325 13.334 7.33325C13.334 7.73325 13.0673 7.99992 12.6673 7.99992C12.2673 7.99992 12.0007 7.73325 12.0007 7.33325C12.0007 6.93325 12.2673 6.66659 12.6673 6.66659ZM5.66732 9.33325H10.334C10.518 9.33325 10.6673 9.48259 10.6673 9.66659V12.3333C10.6673 12.5173 10.518 12.6666 10.334 12.6666H5.66732C5.48332 12.6666 5.33398 12.5173 5.33398 12.3333V9.66659C5.33398 9.48259 5.48332 9.33325 5.66732 9.33325Z" fill="black"/>
</svg>
