<svg width="24" height="24" viewBox="0 0 24 24" fill="none" xmlns="http://www.w3.org/2000/svg">
<g id="chevron_left_24px">
<g id="Group 1">
<path id="icon/navigation/chevron_left_24px" d="M12.2925 6.29249C12.1057 6.10523 11.852 6 11.5875 6C11.323 6 11.0693 6.10523 10.8825 6.29249L6.2925 10.8825C5.9025 11.2725 5.9025 11.9025 6.2925 12.2925L10.8825 16.8825C11.2725 17.2725 11.9025 17.2725 12.2925 16.8825C12.6825 16.4925 12.6825 15.8625 12.2925 15.4725L8.4125 11.5825L12.2925 7.70249C12.6825 7.31249 12.6725 6.67249 12.2925 6.29249Z" fill="black"/>
<path id="icon/navigation/chevron_left_24px_2" d="M17.2925 6.29249C17.1057 6.10523 16.852 6 16.5875 6C16.323 6 16.0693 6.10523 15.8825 6.29249L11.2925 10.8825C10.9025 11.2725 10.9025 11.9025 11.2925 12.2925L15.8825 16.8825C16.2725 17.2725 16.9025 17.2725 17.2925 16.8825C17.6825 16.4925 17.6825 15.8625 17.2925 15.4725L13.4125 11.5825L17.2925 7.70249C17.6825 7.31249 17.6725 6.67249 17.2925 6.29249Z" fill="black"/>
</g>
</g>
</svg>
