<svg width="16" height="16" viewBox="0 0 16 16" fill="none" xmlns="http://www.w3.org/2000/svg">
<path d="M4.66667 0.666992C4.29867 0.666992 4 0.965659 4 1.33366V2.00033H3.33333C2.6 2.00033 2 2.60033 2 3.33366V12.667C2 13.4003 2.6 14.0003 3.33333 14.0003H12.6667C13.4 14.0003 14 13.4003 14 12.667V3.33366C14 2.60033 13.4 2.00033 12.6667 2.00033H12V1.33366C12 0.965659 11.7013 0.666992 11.3333 0.666992C10.9653 0.666992 10.6667 0.965659 10.6667 1.33366V2.00033H5.33333V1.33366C5.33333 0.965659 5.03467 0.666992 4.66667 0.666992ZM3.33333 5.33366H12.6667V12.667H3.33333V5.33366ZM9.33333 8.66699C8.96533 8.66699 8.66667 8.96566 8.66667 9.33366V10.667C8.66667 11.035 8.96533 11.3337 9.33333 11.3337H10.6667C11.0347 11.3337 11.3333 11.035 11.3333 10.667V9.33366C11.3333 8.96566 11.0347 8.66699 10.6667 8.66699H9.33333Z" fill="black"/>
</svg>
