<svg width="24" height="24" viewBox="0 0 24 24" fill="none" xmlns="http://www.w3.org/2000/svg">
<path d="M7.4683 6.01148C4.04909 6.22851 1.42665 9.47458 2.10844 13.1739C2.54345 15.5355 4.39518 17.4411 6.69191 17.8885C9.81463 18.4975 12.5998 16.5424 13.419 13.7146H16.9998V14.5719C16.9998 15.5191 17.7457 16.2863 18.6666 16.2863C19.5874 16.2863 20.3333 15.5191 20.3333 14.5719V13.7146C21.2541 13.7146 22 12.9474 22 12.0002C22 11.053 21.2541 10.2858 20.3333 10.2858H13.4158C12.8159 8.17986 11.0909 6.52438 8.97388 6.11193C8.46022 6.01174 7.95676 5.98047 7.4683 6.01148ZM7.8329 9.4286C9.21377 9.4286 10.333 10.5798 10.333 12.0002C10.333 13.4206 9.21377 14.5719 7.8329 14.5719C6.45202 14.5719 5.33282 13.4206 5.33282 12.0002C5.33282 10.5798 6.45202 9.4286 7.8329 9.4286Z" fill="black"/>
</svg>
