<svg width="16" height="16" viewBox="0 0 16 16" fill="none" xmlns="http://www.w3.org/2000/svg">
<path d="M5.99967 1.33325C3.43024 1.33325 1.33301 3.43049 1.33301 5.99992C1.33301 8.56935 3.43024 10.6666 5.99967 10.6666C7.16501 10.6666 8.22968 10.2319 9.04915 9.52075L9.33301 9.80461V10.6666L13.057 14.3905C13.425 14.7585 14.0223 14.7585 14.3903 14.3905C14.7583 14.0225 14.7583 13.4252 14.3903 13.0572L10.6663 9.33325H9.80436L9.52051 9.0494C10.2317 8.22992 10.6663 7.16525 10.6663 5.99992C10.6663 3.43049 8.56911 1.33325 5.99967 1.33325ZM5.99967 2.66659C7.84852 2.66659 9.33301 4.15107 9.33301 5.99992C9.33301 7.84876 7.84852 9.33325 5.99967 9.33325C4.15083 9.33325 2.66634 7.84876 2.66634 5.99992C2.66634 4.15107 4.15083 2.66659 5.99967 2.66659Z" fill="black"/>
</svg>
