<svg width="14" height="14" viewBox="0 0 14 14" fill="none" xmlns="http://www.w3.org/2000/svg">
<path d="M11.6612 2.32536C11.5073 2.329 11.3611 2.39329 11.2545 2.50423L7.00023 6.75846L2.746 2.50423C2.69164 2.44835 2.62663 2.40393 2.55481 2.3736C2.483 2.34327 2.40583 2.32764 2.32787 2.32764C2.21182 2.32767 2.09842 2.3623 2.00217 2.42712C1.90591 2.49194 1.83117 2.58399 1.78751 2.6915C1.74384 2.79902 1.73323 2.91711 1.75703 3.03069C1.78084 3.14427 1.83797 3.24817 1.92113 3.3291L6.5878 7.99577C6.6972 8.10512 6.84555 8.16655 7.00023 8.16655C7.15491 8.16655 7.30327 8.10512 7.41267 7.99577L12.0793 3.3291C12.164 3.24764 12.2222 3.14249 12.2461 3.02742C12.2701 2.91236 12.2587 2.79274 12.2135 2.68425C12.1683 2.57576 12.0914 2.48344 11.9928 2.4194C11.8943 2.35537 11.7787 2.32258 11.6612 2.32536ZM11.6612 5.82536C11.5073 5.829 11.3611 5.89329 11.2545 6.00423L7.00023 10.2585L2.746 6.00423C2.69164 5.94835 2.62663 5.90393 2.55481 5.8736C2.483 5.84327 2.40583 5.82764 2.32787 5.82764C2.21182 5.82767 2.09842 5.8623 2.00217 5.92712C1.90591 5.99194 1.83117 6.08399 1.78751 6.1915C1.74384 6.29902 1.73323 6.41711 1.75703 6.53069C1.78084 6.64427 1.83797 6.74817 1.92113 6.8291L6.5878 11.4958C6.6972 11.6051 6.84555 11.6666 7.00023 11.6666C7.15491 11.6666 7.30327 11.6051 7.41267 11.4958L12.0793 6.8291C12.164 6.74764 12.2222 6.64249 12.2461 6.52742C12.2701 6.41236 12.2587 6.29274 12.2135 6.18425C12.1683 6.07576 12.0914 5.98344 11.9928 5.9194C11.8943 5.85537 11.7787 5.82259 11.6612 5.82536Z" fill="black"/>
</svg>
