<svg width="16" height="16" viewBox="0 0 16 16" fill="none" xmlns="http://www.w3.org/2000/svg">
<path d="M5.33301 1.33325C4.59634 1.33325 3.99967 1.92992 3.99967 2.66659V7.33325H7.33301V6.39966C7.33301 6.18433 7.4631 5.99014 7.66244 5.90747C7.86243 5.82547 8.0905 5.87005 8.24316 6.02205L9.84342 7.62231C10.0514 7.83031 10.0514 8.16822 9.84342 8.37622L8.24316 9.97648C8.1405 10.0791 8.00553 10.1327 7.86686 10.1327C7.7982 10.1327 7.72844 10.1197 7.66244 10.0924C7.4631 10.0097 7.33301 9.81551 7.33301 9.60018V8.66659H3.99967V13.3333C3.99967 14.0699 4.59634 14.6666 5.33301 14.6666H10.6663C11.403 14.6666 11.9997 14.0699 11.9997 13.3333V2.66659C11.9997 1.92992 11.403 1.33325 10.6663 1.33325H5.33301ZM3.99967 8.66659V7.33325H1.99967C1.63167 7.33325 1.33301 7.63192 1.33301 7.99992C1.33301 8.36792 1.63167 8.66659 1.99967 8.66659H3.99967Z" fill="black"/>
</svg>
