<svg width="16" height="16" viewBox="0 0 16 16" fill="none" xmlns="http://www.w3.org/2000/svg">
<path d="M14.8258 12.3007L8.96117 2.544C8.75651 2.20333 8.39717 2 7.99984 2C7.60251 2 7.24317 2.20333 7.03917 2.54333L1.17384 12.3007C0.965842 12.6467 0.960508 13.0793 1.15917 13.4307C1.35717 13.782 1.73117 14 2.13517 14H13.8652C14.2685 14 14.6432 13.782 14.8412 13.4307C15.0398 13.0793 15.0338 12.6467 14.8258 12.3007ZM8.33317 12H7.66651C7.48251 12 7.33317 11.8507 7.33317 11.6667V11C7.33317 10.816 7.48251 10.6667 7.66651 10.6667H8.33317C8.51717 10.6667 8.66651 10.816 8.66651 11V11.6667C8.66651 11.8507 8.51717 12 8.33317 12ZM7.99984 9.33333C7.63184 9.33333 7.33317 9.03467 7.33317 8.66667V6.66667C7.33317 6.29867 7.63184 6 7.99984 6C8.36784 6 8.66651 6.29867 8.66651 6.66667V8.66667C8.66651 9.03467 8.36784 9.33333 7.99984 9.33333Z" fill="black"/>
</svg>
