<svg width="12" height="12" viewBox="0 0 12 12" fill="none" xmlns="http://www.w3.org/2000/svg">
<path d="M5 1C2.79678 1 1 2.79678 1 5C1 7.20322 2.79678 9 5 9C6.01196 9 6.93585 8.61852 7.6416 7.99512L8 8.35352V9L9.79297 10.793C10.069 11.069 10.517 11.069 10.793 10.793C11.069 10.517 11.069 10.069 10.793 9.79297L9 8H8.35351L7.99512 7.6416C8.61852 6.93585 9 6.01196 9 5C9 2.79678 7.20322 1 5 1ZM5 2C6.66278 2 8 3.33722 8 5C8 6.66278 6.66278 8 5 8C3.33722 8 2 6.66278 2 5C2 3.33722 3.33722 2 5 2ZM3.5 4.5C3.36739 4.5 3.24021 4.55268 3.14645 4.64645C3.05268 4.74021 3 4.86739 3 5C3 5.13261 3.05268 5.25979 3.14645 5.35355C3.24021 5.44732 3.36739 5.5 3.5 5.5C3.63261 5.5 3.75978 5.44732 3.85355 5.35355C3.94732 5.25979 4 5.13261 4 5C4 4.86739 3.94732 4.74021 3.85355 4.64645C3.75978 4.55268 3.63261 4.5 3.5 4.5ZM5 4.5C4.86739 4.5 4.74021 4.55268 4.64645 4.64645C4.55268 4.74021 4.5 4.86739 4.5 5C4.5 5.13261 4.55268 5.25979 4.64645 5.35355C4.74021 5.44732 4.86739 5.5 5 5.5C5.13261 5.5 5.25978 5.44732 5.35355 5.35355C5.44732 5.25979 5.5 5.13261 5.5 5C5.5 4.86739 5.44732 4.74021 5.35355 4.64645C5.25978 4.55268 5.13261 4.5 5 4.5ZM6.5 4.5C6.36739 4.5 6.24021 4.55268 6.14645 4.64645C6.05268 4.74021 6 4.86739 6 5C6 5.13261 6.05268 5.25979 6.14645 5.35355C6.24021 5.44732 6.36739 5.5 6.5 5.5C6.63261 5.5 6.75978 5.44732 6.85355 5.35355C6.94732 5.25979 7 5.13261 7 5C7 4.86739 6.94732 4.74021 6.85355 4.64645C6.75978 4.55268 6.63261 4.5 6.5 4.5Z" fill="black"/>
</svg>
