<svg width="24" height="24" viewBox="0 0 24 24" fill="none" xmlns="http://www.w3.org/2000/svg">
<path d="M12.043 2.00007C11.8798 1.99354 11.7175 2.02707 11.5703 2.09772L7.57031 3.99616C7.39943 4.07749 7.25513 4.20563 7.15418 4.3657C7.05323 4.52578 6.99976 4.71121 7 4.90046V8.90046C7.00013 9.0827 7.05004 9.26144 7.14436 9.41737C7.23868 9.5733 7.37381 9.7005 7.53516 9.78522L11.5352 11.8848C11.6785 11.9601 11.8381 11.9994 12 11.9994C12.1619 11.9994 12.3215 11.9601 12.4648 11.8848L16.4648 9.78522C16.6262 9.7005 16.7613 9.5733 16.8556 9.41737C16.95 9.26144 16.9999 9.0827 17 8.90046V4.90046C17.0002 4.71121 16.9468 4.52578 16.8458 4.3657C16.7449 4.20563 16.6006 4.07749 16.4297 3.99616L12.4297 2.09772C12.3086 2.03953 12.1771 2.00632 12.043 2.00007ZM12 4.10749L14.9199 5.49421L12 7.09968L9.08008 5.49421L12 4.10749ZM3 6.00007C2.448 6.00007 2 6.44807 2 7.00007V13.4844C2 14.0154 2.21094 14.5245 2.58594 14.9005L6 18.3145V20.0001C6 20.5521 6.448 21.0001 7 21.0001H10C10.552 21.0001 11 20.5521 11 20.0001L10.998 17.795V17.586C10.998 17.515 10.9836 17.4557 10.9746 17.3907C10.8536 15.8187 10.0661 14.8874 9.70508 14.5274L6.70508 11.5274C6.31408 11.1364 5.68397 11.1364 5.29297 11.5274C4.90197 11.9184 4.90197 12.5505 5.29297 12.9415L7.37305 15.0235L7.36328 15.0216C7.55828 15.2165 7.55828 15.5336 7.36328 15.7286C7.16828 15.9236 6.85125 15.9236 6.65625 15.7286L3.99609 13.0157C3.99709 13.0097 4 13.0061 4 13.0001V7.00007C4 6.44807 3.552 6.00007 3 6.00007ZM21 6.00007C20.448 6.00007 20 6.44807 20 7.00007V13.0001C20 13.0061 20.0039 13.0097 20.0039 13.0157L17.3438 15.7286C17.1488 15.9236 16.8317 15.9236 16.6367 15.7286C16.4417 15.5336 16.4417 15.2165 16.6367 15.0216L16.627 15.0235L18.707 12.9415C19.098 12.5505 19.098 11.9184 18.707 11.5274C18.316 11.1364 17.684 11.1364 17.293 11.5274L14.293 14.5274C13.932 14.8874 13.1464 15.8187 13.0254 17.3907C13.0164 17.4557 13 17.515 13 17.586V17.795V20.0001C13 20.5521 13.448 21.0001 14 21.0001H17C17.552 21.0001 18 20.5521 18 20.0001V18.3145L21.4141 14.9005C21.7891 14.5245 22 14.0154 22 13.4844V7.00007C22 6.44807 21.552 6.00007 21 6.00007Z" fill="black"/>
</svg>
