<svg width="14" height="20" viewBox="0 0 14 20" fill="none" xmlns="http://www.w3.org/2000/svg">
<path d="M7 0C3.134 0 0 3.134 0 7C0 10.966 4.404 16.82 6.226 19.071C6.626 19.565 7.374 19.565 7.774 19.071C9.596 16.82 14 10.966 14 7C14 3.134 10.866 0 7 0ZM10.333 8H10V10.333C10 10.702 9.702 11 9.333 11H8.666C8.298 11 8 10.702 8 10.333V8H6V10.333C6 10.702 5.702 11 5.333 11H4.667C4.298 11 4 10.702 4 10.333V8H3.667C3.298 8 3 7.702 3 7.333C3 7.123 3.099 6.926 3.267 6.8L6.4 4.45C6.756 4.183 7.244 4.183 7.6 4.45L10.733 6.8C10.901 6.926 11 7.123 11 7.333C11 7.702 10.702 8 10.333 8Z" fill="black"/>
</svg>
