<svg width="24" height="24" viewBox="0 0 24 24" fill="none" xmlns="http://www.w3.org/2000/svg">
<g id="chevron_right_24px">
<g id="Group 1">
<path id="icon/navigation/chevron_right_24px" d="M11.2925 6.71063C10.9025 7.10063 10.9025 7.73063 11.2925 8.12063L15.1725 12.0006L11.2925 15.8806C10.9025 16.2706 10.9025 16.9006 11.2925 17.2906C11.6825 17.6806 12.3125 17.6806 12.7025 17.2906L17.2925 12.7006C17.6825 12.3106 17.6825 11.6806 17.2925 11.2906L12.7025 6.70063C12.3225 6.32063 11.6825 6.32063 11.2925 6.71063Z" fill="black"/>
<path id="icon/navigation/chevron_right_24px_2" d="M6.2925 6.71063C5.9025 7.10063 5.9025 7.73063 6.2925 8.12063L10.1725 12.0006L6.2925 15.8806C5.9025 16.2706 5.9025 16.9006 6.2925 17.2906C6.6825 17.6806 7.3125 17.6806 7.7025 17.2906L12.2925 12.7006C12.6825 12.3106 12.6825 11.6806 12.2925 11.2906L7.7025 6.70063C7.3225 6.32063 6.6825 6.32063 6.2925 6.71063Z" fill="black"/>
</g>
</g>
</svg>
